<svg width="184" height="184" viewBox="0 0 184 184" fill="none" xmlns="http://www.w3.org/2000/svg">
<path d="M127.994 24.5235H102.414C97.7923 24.5382 97.9653 31.4272 102.414 31.3867H127.994V34.9085H102.414C97.8181 34.868 97.9874 41.7533 102.414 41.7717H127.994V45.3707H102.414C97.8181 45.3707 97.9874 52.2523 102.414 52.2339H127.994V55.6637H102.414C97.9137 55.6968 97.9874 62.5858 102.414 62.6078H127.994V66.045H102.414C97.9137 66.0302 97.8953 72.9082 102.414 72.9082H127.994V76.3379H102.414C97.9137 76.3526 97.8953 83.2379 102.414 83.2048H127.994V86.7192H102.414C97.9137 86.6787 97.8953 93.5566 102.414 93.5824H127.994V97.0048H102.414C97.9137 97.0011 97.9874 103.894 102.414 103.872H127.994V170.697C128.009 180.879 143.476 180.695 143.52 170.697V14.3152C143.476 9.66368 139.656 3.78304 133.371 3.76464H102.414C97.7923 3.76832 97.9653 10.6573 102.414 10.6278L127.994 10.7125V14.1349H102.414C97.7997 14.1128 97.9726 20.9981 102.414 21.0018H127.994V24.5235ZM100.655 142.997C100.641 131.111 88.32 118.327 73.6 126.607V81.144L64.0798 6.164C63.8811 4.18048 62.1994 3.71312 61.0696 3.68C59.903 3.71312 57.5662 4.18048 57.3123 6.164L47.84 81.144V126.607C33.12 118.327 21.1968 131.192 21.1931 142.905C21.1968 153.327 29.2192 161.887 40.0752 161.861C51.0122 161.887 58.88 152.293 58.88 142.905V95.68H62.56V142.905C62.56 153.416 70.7002 161.195 79.7456 161.688C79.5947 167.451 81.4752 175.672 85.0153 178.933C89.1664 182.76 94.1086 177.865 92.081 173.88C90.1232 170.171 88.2022 167.974 89.7626 159.874C96.2835 156.856 100.641 150.505 100.655 142.997ZM40.4947 152.348C38.0132 152.348 35.6334 151.363 33.8787 149.608C32.1241 147.853 31.1383 145.473 31.1383 142.992C31.1383 140.51 32.1241 138.131 33.8787 136.376C35.6334 134.621 38.0132 133.636 40.4947 133.636C45.5952 133.665 49.7499 137.849 49.7867 142.997C49.7762 145.464 48.7957 147.828 47.0571 149.577C45.3184 151.327 42.9612 152.322 40.4947 152.348ZM72.036 142.997C72.0446 140.529 73.0246 138.162 74.7641 136.41C76.5037 134.658 78.8629 133.662 81.3317 133.636C83.8013 133.658 86.1624 134.654 87.9021 136.406C89.6419 138.159 90.6199 140.528 90.6237 142.997C90.6199 145.466 89.6415 147.833 87.9015 149.585C86.1614 151.336 83.8003 152.329 81.3317 152.348C78.8636 152.326 76.5038 151.332 74.7638 149.582C73.0237 147.831 72.0436 145.466 72.036 142.997Z" fill="black" fill-opacity="0.1"/>
</svg>
