<svg width="46" height="46" viewBox="0 0 46 46" fill="none" xmlns="http://www.w3.org/2000/svg">
<path fill-rule="evenodd" clip-rule="evenodd" d="M43.1403 0.913736C42.5934 1.14645 33.2597 8.59576 26.753 13.9926L24.5867 15.7894L17.7156 9.09195C10.3405 1.90305 10.5834 2.11393 9.43621 1.9055C9.06349 1.83783 8.7674 1.83783 8.39468 1.9055C7.29706 2.1049 7.2295 2.15846 3.50948 5.77815C-0.316053 9.5004 -0.270651 9.44211 0.252897 9.95346C0.710497 10.4006 0.769536 10.3608 3.28185 7.91332L5.59686 5.65798L6.06558 6.11587L6.53431 6.57376L4.22558 8.83522C1.72018 11.2894 1.67944 11.3471 2.13713 11.7941C2.63645 12.282 2.71021 12.2339 5.23553 9.77369L7.53035 7.538L7.97413 7.97818L8.41792 8.41827L6.20349 10.5863C3.71163 13.026 3.60235 13.184 4.05295 13.6966C4.45833 14.1577 4.65797 14.0223 7.11986 11.6159L9.40543 9.3819L9.87865 9.83838L10.3519 10.295L8.0635 12.5365C5.54517 15.0033 5.49592 15.0753 5.99533 15.5631C6.45293 16.0102 6.51197 15.9704 9.02428 13.5229L11.3393 11.2676L11.808 11.7255L12.2767 12.1834L9.96801 14.4448C7.46261 16.8991 7.42187 16.9567 7.87956 17.4037C8.37888 17.8916 8.45264 17.8435 10.978 15.3833L13.2728 13.1476L13.7157 13.5869L14.1586 14.0262L11.9463 16.1951C9.45317 18.6393 9.34568 18.7947 9.79538 19.3062C10.2008 19.7673 10.4004 19.6319 12.8623 17.2255L15.1479 14.9915L15.6211 15.448L16.0943 15.9046L13.8059 18.1461C11.2876 20.6129 11.2383 20.6849 11.7378 21.1727C12.1954 21.6198 12.2544 21.58 14.7667 19.1326L17.0817 16.8772L17.5504 17.3351L18.0192 17.793L15.7104 20.0545C13.205 22.5087 13.1643 22.5663 13.622 23.0134C14.1213 23.5012 14.1951 23.4531 16.7202 20.993L19.0149 18.7576L19.4873 19.2249L19.9597 19.6922L18.5874 20.866C16.6282 22.5418 12.634 26.0164 12.0783 26.5286C11.4982 27.0631 11.4849 27.2305 11.9672 27.932C12.919 29.3167 13.0181 31.0715 12.2264 32.5225C11.8223 33.2633 8.89041 36.0696 8.16839 36.4069C5.03051 37.8724 1.45881 35.7168 1.43673 32.3442C1.41 28.2613 6.29914 26.245 9.3682 29.0733C10.081 29.7301 10.3667 29.8079 10.7555 29.451C11.1163 29.12 11.0541 28.8181 10.5081 28.2497C6.77693 24.3657 0.0428493 26.9751 0.0339665 32.3082C0.0276857 36.0581 3.70455 38.948 7.40061 38.0982L7.90451 37.9823L7.78302 38.4282C6.96616 41.4247 9.17457 44.8439 12.3762 45.5398C17.8539 46.7302 21.9249 40.5451 18.5358 36.1812L18.0781 35.5917L20.3608 33.0859C22.2099 31.0561 26.4372 26.3735 26.5649 26.2138C26.5818 26.1925 26.817 26.3885 27.0875 26.6494L27.5791 27.1238L25.2908 29.3654C22.7725 31.8321 22.7232 31.9042 23.2226 32.3919C23.6802 32.8391 23.7393 32.7993 26.2516 30.3518L28.5666 28.0965L29.0353 28.5544L29.504 29.0122L27.1953 31.2737C24.6899 33.7279 24.6492 33.7856 25.1069 34.2326C25.6062 34.7205 25.6799 34.6723 28.2051 32.2123L30.4997 29.9768L30.9671 30.4391L31.4344 30.9014L29.1475 33.1341C26.6841 35.539 26.5455 35.7341 27.0176 36.1301C27.5412 36.5694 27.7003 36.4644 30.2023 34.0289L32.4225 31.8677L32.8722 32.3004L33.3219 32.7331L31.0333 34.9748C28.5149 37.4417 28.4656 37.5138 28.965 38.0016C29.4226 38.4487 29.4817 38.4089 31.994 35.9614L34.309 33.7061L34.7777 34.164L35.2465 34.6219L32.9377 36.8833C30.4323 39.3375 30.3916 39.3952 30.8493 39.8422C31.3486 40.3301 31.4224 40.282 33.9475 37.8219L36.2421 35.5865L36.7095 36.0487L37.1768 36.511L34.8899 38.7437C32.4266 41.1487 32.2879 41.3437 32.76 41.7397C33.2836 42.179 33.4427 42.074 35.9447 39.6385L38.165 37.4773L38.6147 37.9101L39.0644 38.3427L36.7757 40.5844C34.2573 43.0514 34.2081 43.1234 34.7075 43.6112C35.1651 44.0583 35.2241 44.0185 37.7364 41.571L40.0514 39.3157L40.5202 39.7736L40.9889 40.2315L38.6802 42.4929C36.1748 44.9472 36.134 45.0048 36.5917 45.4518C37.1107 45.9589 37.0604 45.9959 40.7921 42.3582C44.9764 38.2793 45.2158 37.909 44.7694 36.2066C44.532 35.3015 44.54 35.3101 37.4211 28.3417L30.6012 21.6659L32.078 19.9711C37.6978 13.5216 45.4679 4.26093 45.8107 3.60399C46.6024 2.08702 44.7556 0.226558 43.1403 0.913736ZM30.1049 15.3668C22.8851 22.42 16.941 28.2477 16.896 28.3172C16.6838 28.6449 17.1103 29.2764 17.5439 29.2764C17.7006 29.2764 21.0134 26.0944 30.9808 16.3699C38.2567 9.27128 44.0693 3.64089 43.8975 3.85782C39.5657 9.32966 27.6643 23.0699 20.192 31.2263L18.7669 32.7816L18.5174 32.6081C17.9426 32.2082 17.4394 31.3646 17.4394 30.8007C17.4394 30.6339 16.9936 30.3282 16.7503 30.3282C15.662 30.3282 16.0594 32.3126 17.3723 33.4345L17.8289 33.8248L17.245 34.465C16.1863 35.6257 16.1776 35.6844 16.947 36.4637C18.561 38.0989 18.8368 40.4037 17.6348 42.2112C15.0966 46.0277 9.0459 44.2912 9.06125 39.7506C9.0669 38.0842 9.40902 37.4865 11.6369 35.2509C12.9502 33.9331 13.2292 33.6049 13.5115 33.0454C14.3505 31.3823 14.3739 29.4957 13.5748 27.9492C13.4302 27.6696 13.312 27.4015 13.312 27.3534C13.312 27.0714 24.8486 17.288 33.0067 10.6516C37.9135 6.66018 43.0827 2.54307 43.1875 2.54307C43.212 2.54307 37.3249 8.31379 30.1049 15.3668ZM9.70341 3.37881C9.93724 3.47304 12.0531 5.48181 16.778 10.0951L23.519 16.6769L22.4756 17.5577C21.9017 18.0421 21.3397 18.5187 21.2269 18.6168L21.0216 18.7952L13.8031 11.7441L6.58473 4.69304L7.14274 4.14312C8.02931 3.26925 8.83523 3.02874 9.70341 3.37881ZM43.2874 36.157C43.6953 37.0063 43.4536 37.8369 42.5415 38.7197L41.9767 39.2665L34.7654 32.2215C28.0464 25.6576 27.5625 25.1649 27.6784 25.0059C27.7468 24.9121 28.2266 24.3556 28.7448 23.7692L29.6868 22.703L36.4029 29.2547C40.9833 33.7229 43.1726 35.9179 43.2874 36.157ZM5.10435 29.1543C2.67208 29.9111 1.91497 32.8766 3.70706 34.6273C5.01831 35.9081 7.15987 35.9081 8.47112 34.6273C10.9191 32.2359 8.39387 28.1309 5.10435 29.1543ZM7.04844 30.6027C8.17135 31.1524 8.40356 32.8823 7.46611 33.7144C6.03059 34.9888 3.73828 33.7565 4.1556 31.9348C4.45591 30.6238 5.81399 29.9984 7.04844 30.6027ZM12.7096 36.5858C9.76882 37.5227 9.5123 41.4796 12.3093 42.7605C13.5005 43.306 15.143 43.0102 16.097 42.0784C18.5242 39.7072 15.9605 35.5502 12.7096 36.5858ZM14.6435 38.0568C15.9111 38.6532 16.0314 40.5727 14.8487 41.3291C12.8451 42.6105 10.659 40.1338 12.2682 38.4056C12.8391 37.7925 13.786 37.6534 14.6435 38.0568Z" fill="#CDA582"/>
</svg>
