<svg width="46" height="47" viewBox="0 0 46 47" fill="none" xmlns="http://www.w3.org/2000/svg">
<path fill-rule="evenodd" clip-rule="evenodd" d="M0.195254 0.974472C-0.0641267 1.25062 -0.0585583 1.6682 0.207828 1.91848L0.415746 2.11372H6.79267C10.9712 2.11372 13.3533 2.14712 13.7025 2.2107C15.5046 2.53884 16.9144 4.14246 16.9933 5.95397C17.0311 6.8221 17.2018 6.78348 13.3233 6.78348C9.3907 6.78348 9.61002 6.83853 9.61002 5.85186C9.61002 4.8158 9.20541 4.08229 8.41748 3.68967L7.95808 3.46076H4.17434H0.390598L0.195254 3.66857C-0.0641267 3.94471 -0.0585583 4.3623 0.207828 4.61258C0.414129 4.80628 0.443947 4.80781 3.98448 4.80781C8.30782 4.80781 8.17301 4.77476 8.17301 5.83363C8.17301 6.85901 8.58013 7.60006 9.35567 7.98658L9.82494 8.22033H13.2322C17.1154 8.22033 17.1654 8.21333 17.7992 7.58237C19.305 6.08302 17.9162 2.548 15.3378 1.31716C14.1688 0.759124 14.2821 0.766668 7.01666 0.766668H0.390598L0.195254 0.974472ZM9.73621 9.75642C9.57221 9.93764 9.56511 10.1564 9.56511 15.0523V20.1591L9.76216 20.3562C10.0453 20.6392 10.4807 20.6183 10.7469 20.3088L10.9572 20.0643V15.0525C10.9572 10.1181 10.9543 10.037 10.771 9.80401C10.53 9.49751 9.99289 9.47282 9.73621 9.75642ZM12.8433 9.74699C12.6698 9.92049 12.6637 10.0463 12.6637 13.4738C12.6637 17.4578 12.6506 17.3803 13.3216 17.3803C14.0174 17.3803 14.0109 17.4178 14.0109 13.4456C14.0109 9.48018 14.026 9.56738 13.3373 9.56738C13.1426 9.56738 12.9545 9.63581 12.8433 9.74699ZM15.9035 9.80401C15.5958 10.1951 15.6166 14.9183 15.9277 15.2799C16.1939 15.5893 16.6293 15.6102 16.9124 15.3273C17.1999 15.0398 17.223 10.071 16.9383 9.75642C16.6816 9.47282 16.1446 9.49751 15.9035 9.80401ZM29.2791 15.26C29.0568 15.3221 28.3048 15.6195 27.608 15.921C26.9111 16.2226 26.1836 16.4974 25.9913 16.5317C25.2736 16.6599 24.9919 17.2978 25.4591 17.7367C25.8176 18.0735 26.413 17.9564 28.1544 17.2069C30.3025 16.2822 30.3945 16.326 30.7648 18.449C30.9292 19.3911 30.9565 19.4206 32.1508 19.9427C33.1219 20.3671 33.1254 20.3698 33.0237 20.6033C32.7881 21.1437 32.382 21.7116 31.9933 22.0437C31.0441 22.855 31.8413 23.8636 32.8527 23.1311C33.279 22.8222 33.8294 22.1156 34.1634 21.4481L34.3972 20.9808L35.049 21.3476C37.9845 22.9994 38.1904 24.3261 36.1774 28.617L35.7279 29.5753L35.0395 29.5281C31.7731 29.3042 27.7649 30.7128 25.0386 33.0425L24.3456 33.6346L22.9729 33.6341C21.0582 33.6335 20.4805 33.4272 20.1104 32.6123C19.6382 31.5727 20.471 30.3119 21.63 30.3119C22.0761 30.3119 22.3776 29.9967 22.3457 29.5637C22.319 29.2004 22.3033 29.1849 21.2651 28.4977C18.4867 26.6586 17.3479 24.8624 17.1604 22.0234C17.0874 20.9207 16.9529 20.6731 16.4266 20.6731C15.9234 20.6731 15.6972 21.0434 15.7281 21.8166C15.7534 22.4507 15.7513 22.4572 15.3309 23.0257C13.7348 25.1847 13.319 28.3815 14.7093 27.8057C15.0121 27.6803 15.118 27.4701 15.2711 26.6897C15.3917 26.0755 15.7175 25.0882 15.9443 24.6496L16.1038 24.3412L16.1918 24.5651C16.9305 26.4447 18.0782 27.9544 19.5977 29.0453L20.0204 29.3488L19.5944 29.7317C18.6392 30.5903 18.3236 31.912 18.795 33.0789L19.0196 33.6346H17.0092H14.9988V31.6549V29.6751L14.7783 29.4547C14.4244 29.1007 13.9162 29.1687 13.6932 29.6C13.5901 29.7993 13.5618 30.2609 13.5618 31.7443V33.6346H12.2595H10.9572V31.2644C10.9572 24.2628 12.7607 20.3408 16.9298 18.276C18.6809 17.4087 22.3155 16.8265 22.042 17.4571C21.454 18.8129 21.2896 21.1671 21.7529 21.5985C22.3718 22.175 22.8776 21.6726 22.8879 20.4711C22.8971 19.3936 23.1278 18.4072 23.5823 17.503C24.1289 16.4155 23.9351 16.1101 22.5881 15.9355C17.8714 15.3243 13.26 17.9164 11.1316 22.3753C9.94799 24.855 9.52461 27.3137 9.52155 31.7263L9.52021 33.6346H7.73957C5.9945 33.6346 5.95507 33.6388 5.76368 33.8424C5.51795 34.104 5.51453 34.4399 5.75461 34.7451L5.9407 34.9817H19.0079C28.6801 34.9817 32.1261 35.0085 32.2713 35.085C32.5558 35.2347 32.5993 35.3343 32.6009 35.8384C32.6092 38.602 28.7118 42.8438 24.1068 45.0828C22.8539 45.6919 22.6249 46.0277 23.1229 46.5254C23.4713 46.8739 23.7668 46.8112 25.1721 46.0908C27.8751 44.705 29.29 43.5724 32.0633 40.5745C33.5573 38.9596 36.0266 38.658 37.9461 39.8558C38.1931 40.01 39.8927 41.6234 41.723 43.4411C45.3395 47.0326 45.3307 47.0259 45.7891 46.5381C46.2473 46.0504 46.2801 46.0923 42.4592 42.287C38.5928 38.4363 38.4167 38.2981 36.8683 37.8973C36.1989 37.724 34.6126 37.7176 33.9923 37.8857L33.541 38.008L33.7461 37.3969C34.1877 36.0802 34.1062 34.9864 33.518 34.3339C32.8982 33.6467 32.855 33.6391 29.5037 33.6346L26.5398 33.6307L26.7644 33.4499C29.58 31.183 34.4896 30.3287 38.2435 31.4526C39.3872 31.795 39.5777 31.8083 39.8377 31.564C40.5418 30.9026 39.7736 30.2922 37.7027 29.8671L37.19 29.7619L37.4228 29.2511C40.1248 23.3241 39.3491 21.539 32.8492 18.7266C32.2992 18.4886 32.1531 18.3861 32.1531 18.2378C32.1531 17.9264 31.8031 16.7634 31.5748 16.3171C31.0529 15.2961 30.3349 14.9655 29.2791 15.26ZM25.8456 19.3899C25.7601 19.4547 25.5897 19.8047 25.467 20.1675C25.3442 20.5303 25.1009 21.0344 24.9263 21.288C24.4238 22.0174 24.6045 22.6786 25.3064 22.6786C25.7918 22.6786 26.7782 21.1223 26.9098 20.1489C27.0012 19.4721 26.3493 19.0072 25.8456 19.3899ZM41.2265 31.6567C40.7416 32.1416 40.8948 32.481 41.9005 33.1502C42.5592 33.5885 44.5332 35.2887 44.8951 35.7296C45.2193 36.1243 45.9844 35.746 45.9844 35.1909C45.9844 34.5833 42.3587 31.4776 41.6509 31.4789C41.5151 31.4792 41.3241 31.5592 41.2265 31.6567ZM0.195254 33.8424L0 34.0503V40.2028V46.3554L0.207828 46.5507C0.484004 46.81 0.901635 46.8045 1.15194 46.5381L1.3472 46.3302V40.656V34.9817H2.58896C3.77081 34.9817 3.84006 34.9716 4.02597 34.7739C4.27448 34.5093 4.28194 34.0546 4.0416 33.8142C3.74378 33.5165 0.479064 33.5404 0.195254 33.8424Z" fill="#CDA582"/>
</svg>
