<svg width="46" height="48" viewBox="0 0 46 48" fill="none" xmlns="http://www.w3.org/2000/svg">
<path fill-rule="evenodd" clip-rule="evenodd" d="M30.4443 0.8611C28.4885 1.4485 27.9848 3.64077 29.291 5.88111C30.0471 7.17801 31.8462 7.55175 33.1531 6.68345C33.4154 6.50915 33.6417 6.37815 33.6561 6.39227C33.9165 6.64932 34.2159 7.93696 34.0497 8.08521C33.8038 8.30465 33.4498 9.00167 33.3693 9.42486C33.3133 9.71999 33.2112 9.82429 32.5488 10.2624C31.7658 10.7803 30.8717 11.5711 30.3799 12.1806L30.0969 12.5313L27.7389 11.2264C20.8239 7.39993 17.0607 6.09623 12.9301 6.09623C9.45154 6.09623 7.4373 6.88124 8.46644 7.83587C8.71871 8.0698 8.83401 8.06723 10.0497 7.8C13.7238 6.99242 18.0947 7.86999 23.2438 10.4491C24.6992 11.1781 29.0646 13.5419 29.2604 13.707C29.2988 13.7394 29.2045 14.1062 29.0508 14.5219C28.1312 17.0097 28.4455 20.4593 29.8614 23.4221C30.1435 24.0123 30.6705 24.313 31.2384 24.2078C31.8914 24.0868 31.9878 23.9013 33.4133 20.026C34.1436 18.041 34.7582 16.3983 34.7792 16.3759C34.8002 16.3533 35.1644 16.4464 35.5884 16.5827C38.6955 17.5819 41.9025 17.5176 43.8984 16.4161C44.5136 16.0766 44.5219 16.1006 44.5206 18.2332C44.5186 21.6897 43.5367 24.7325 41.6169 27.2311C40.2481 29.0127 40.2222 29.0731 40.5401 29.7348C40.7219 30.1128 41.0031 30.3116 41.5505 30.4489L41.9524 30.5496L41.0456 31.5562C35.1802 38.0663 28.4778 39.993 23.4367 36.6181C20.4229 34.6004 19.5398 31.8566 20.3747 27.1043C20.7523 24.9549 20.8701 22.3572 20.6254 21.576C20.2405 20.3479 22.1818 23.5612 22.7348 25.0677C23.0407 25.901 23.4592 26.1219 23.9746 25.7215C25.0722 24.8692 21.5197 19.2904 18.6921 17.4258C18.3861 17.2241 17.8669 16.8432 17.5383 16.5793C16.2188 15.5202 14.6489 14.9821 12.8185 14.9616L11.6849 14.949L12.261 14.6538C14.8463 13.3292 17.7767 13.5289 20.6566 15.2256C21.8216 15.9119 22.3983 15.8506 22.3983 15.0402C22.3983 14.6383 22.2658 14.5123 21.1665 13.868C16.0083 10.845 9.7799 12.5911 7.33063 17.747C6.45313 19.594 6.34897 19.8261 6.17754 20.3157C6.02423 20.7537 5.78748 21.6245 5.59978 22.4411C5.55082 22.6543 5.45214 22.7128 4.83443 22.8938C4.13245 23.0995 3.31934 23.5526 2.82558 24.0133L2.57006 24.2515L2.41907 23.9632C1.31253 21.8504 1.16322 17.995 2.07175 14.9948C2.71826 12.8602 4.12334 10.7981 5.68267 9.69567C6.72073 8.96168 6.91297 8.56619 6.44328 8.13044C5.98483 7.70532 5.23639 8.0709 3.82304 9.41055C-0.0354029 13.0679 -1.16787 20.1363 1.32396 25.009C1.65289 25.6522 1.66877 25.7256 1.67779 26.6456C1.6894 27.8301 1.91361 28.3828 2.72207 29.2196C3.50118 30.0261 4.39801 30.4446 5.96355 30.7324C6.08462 30.7546 6.2449 30.9559 6.41373 31.2978C7.04705 32.5803 8.48075 34.3438 9.53618 35.1384L10.0066 35.4927L9.98172 37.5483L9.95681 39.604L8.60953 39.9917C3.65263 41.4183 1.85563 42.9409 1.6776 45.8648C1.61925 46.8231 1.75063 47.1868 2.28174 47.5371L2.59747 47.7454H14.5562H26.5149L26.8306 47.5371C27.9876 46.774 27.4587 43.8465 25.9234 42.5156C24.979 41.6969 24.1767 42.6917 25.0228 43.6322C25.6029 44.277 25.9078 44.9599 25.9643 45.7415L26.0099 46.3693H14.5562H3.10247L3.14912 45.7263C3.29983 43.6462 4.7562 42.5919 9.2933 41.2779C11.3838 40.6726 11.397 40.6533 11.397 38.1994C11.397 36.8271 11.4225 36.4532 11.5132 36.4936C14.0596 37.6269 15.0411 37.6268 17.5992 36.4934C17.6899 36.4532 17.7153 36.8272 17.7153 38.1994C17.7153 40.6527 17.7284 40.6719 19.819 41.2792C20.5784 41.4999 21.4467 41.7652 21.7485 41.869C22.6863 42.1914 23.1974 42.0073 23.1974 41.3473C23.1974 40.8206 23.0836 40.7609 20.7816 40.0806L19.1555 39.5999L19.1304 37.5573L19.1054 35.5147L19.4092 35.258C19.8236 34.9078 19.863 34.9196 20.2783 35.5182C22.5988 38.8625 27.4272 40.4102 31.9827 39.2701C35.5918 38.3668 39.5295 35.6358 42.6854 31.8473C43.8596 30.4377 43.7159 29.33 42.3353 29.1472L41.9694 29.0988L42.3284 28.6748C45.1171 25.3825 46.4731 20.5225 45.8511 16.0498C45.6692 14.7412 44.8124 14.2563 43.7459 14.8582C43.3298 15.093 43.1744 15.0888 43.1744 14.8424C43.1744 13.725 40.8105 10.8808 39.1463 9.99603C38.8684 9.84824 38.7988 9.74741 38.7179 9.37523C38.6058 8.85884 38.4409 8.51886 38.1196 8.1419L37.8896 7.87201L38.178 7.08811L38.4665 6.3042L38.8752 6.61217C40.7365 8.01494 42.7749 6.89894 43.5073 4.07625C44.2116 1.36217 40.7264 -0.392136 38.8382 1.72582C38.5338 2.06727 38.3373 2.51551 37.5514 4.66145L36.6238 7.19416L36.0631 7.19562L35.5024 7.19709L34.7254 5.06418C33.7282 2.32699 33.5186 1.88747 32.9932 1.43079C32.3349 0.858623 31.2556 0.617444 30.4443 0.8611ZM31.5521 2.24103C32.4436 2.49349 33.1666 4.36137 32.6786 5.15142C31.8482 6.49612 30.0056 5.33242 29.9847 3.44995C29.9753 2.5978 30.737 2.01021 31.5521 2.24103ZM41.5627 2.38166C42.4486 2.95484 42.1311 5.09482 41.0875 5.58378C39.775 6.19871 38.908 5.05436 39.5034 3.4927C39.9748 2.25598 40.7347 1.846 41.5627 2.38166ZM36.7444 8.81646C37.2575 9.13754 37.461 9.87392 37.1831 10.4044C36.5562 11.6014 34.8119 11.1766 34.8119 9.82695C34.8119 8.8804 35.9203 8.30089 36.7444 8.81646ZM34.1991 11.7573L34.7296 12.2811L32.9057 17.2387C31.9025 19.9654 31.0466 22.2319 31.0037 22.2755C30.8898 22.3909 30.2851 20.4698 30.1213 19.4729C29.5823 16.1911 30.5315 13.5279 32.8567 11.798C33.7621 11.1245 33.5642 11.1305 34.1991 11.7573ZM39.0575 11.6403C40.4794 12.6618 42.2452 15.2179 41.818 15.6361C41.6093 15.8403 39.7679 15.9841 38.9932 15.8567L38.6679 15.8032L38.0408 14.0904C37.2937 12.05 37.312 12.3576 37.9014 11.7535C38.4972 11.1429 38.3811 11.1543 39.0575 11.6403ZM36.6566 14.5086C36.8716 15.0954 36.9851 15.5215 36.9213 15.5021C35.499 15.0679 35.2667 14.9692 35.3252 14.8248C35.3588 14.7417 35.5363 14.2644 35.7196 13.7641L36.053 12.8544L36.1665 13.1678C36.229 13.3402 36.4495 13.9435 36.6566 14.5086ZM14.3138 16.5518C16.5884 17.1262 18.4643 19.078 19.1214 21.5541C19.4385 22.7487 19.3957 24.2197 18.9732 26.6456C18.4233 29.8031 18.4334 31.4407 19.0127 33.1034L19.194 33.6235L18.4314 34.2191C15.6701 36.3763 13.6278 36.4149 10.8689 34.3623C7.32877 31.7286 6.08016 28.0593 6.98359 22.9445C7.82912 18.1571 10.7125 15.6424 14.3138 16.5518ZM10.2237 21.1208C9.57456 21.3499 9.27379 21.5594 9.20484 21.8305C9.02626 22.5332 9.59983 22.9368 10.3263 22.6195C10.8933 22.3719 11.4976 22.3733 12.1093 22.6235C12.5708 22.8124 12.604 22.8142 12.8355 22.6645C14.1508 21.8137 11.9486 20.5121 10.2237 21.1208ZM10.696 24.2104C10.1204 24.7785 10.4816 26.3753 11.1838 26.3674C11.7193 26.3615 11.9545 25.984 11.9545 25.1309C11.9545 24.1554 11.2635 23.65 10.696 24.2104ZM5.28006 25.7604C5.25339 26.8531 5.28452 27.5169 5.395 28.2051C5.57191 29.3083 5.59179 29.255 5.06998 29.0751C2.61717 28.2297 2.36992 25.6111 4.63764 24.4953C5.3517 24.1441 5.32104 24.0838 5.28006 25.7604ZM12.0897 30.3569C10.8273 31.6031 14.7592 32.5559 16.7315 31.4817C17.8787 30.8569 17.1335 29.8914 15.8353 30.3203C14.9722 30.6054 14.0865 30.6086 13.3051 30.3295C12.5929 30.0753 12.3698 30.0803 12.0897 30.3569Z" fill="#CDA582"/>
</svg>
