<svg width="46" height="47" viewBox="0 0 46 47" fill="none" xmlns="http://www.w3.org/2000/svg">
<path fill-rule="evenodd" clip-rule="evenodd" d="M0.206437 1.01902C-0.125942 1.35125 -0.216208 -0.290978 1.18774 18.8753C2.25222 33.4065 2.42144 36.0493 2.42144 38.1372V40.557L2.67384 40.8093L2.92613 41.0616H6.36404H9.80185L9.83845 41.8663C9.88441 42.876 10.234 43.5145 11.0003 43.9886L11.5033 44.2996L14.3516 44.3298L17.1999 44.3601L17.256 44.7771C17.3384 45.3917 17.8184 46.0944 18.4028 46.4556L18.9061 46.7667H27.9179H36.9298L37.4331 46.4556C38.0174 46.0944 38.4974 45.3917 38.5799 44.7771L38.6359 44.3601L41.4842 44.3298L44.3325 44.2996L44.8356 43.9886C45.147 43.7959 45.457 43.4858 45.6497 43.1742L45.9608 42.6712L45.9922 32.8977C46.0146 25.9471 45.9898 22.9068 45.9064 22.3715C45.6104 20.4706 44.6337 18.6143 43.1946 17.2179L42.7223 16.7597V14.7718C42.7223 12.2495 42.7402 12.2795 41.2362 12.2795H40.2549V10.6348V8.99013H40.8643C41.7945 8.99013 42.215 8.28774 41.6868 7.61629L41.4737 7.34543H35.7314H29.989L29.776 7.61629C29.6588 7.76524 29.5629 8.01338 29.5629 8.16778C29.5629 8.32218 29.6588 8.57032 29.776 8.71927L29.989 8.99013H32.6546H35.3201V10.6348V12.2795H34.3388C32.8348 12.2795 32.8527 12.2495 32.8527 14.7718V16.7597L32.3804 17.2179C30.0254 19.5031 29.5629 21.0478 29.5629 26.6282V30.3711H27.0955H24.6281V27.8229C24.6281 24.6367 24.4142 23.7096 23.3424 22.2497L22.9831 21.7603V16.8611V11.9618L22.7307 11.7095C22.5002 11.479 22.3985 11.4572 21.5534 11.4572H20.6282L20.6786 10.9689C20.7719 10.0634 21.3382 2.08643 21.3382 1.677C21.3382 1.38332 21.2685 1.20158 21.0858 1.01902L20.8335 0.766663H10.6461H0.458729L0.206437 1.01902ZM19.5536 3.04323C19.5174 3.39067 19.4876 3.76072 19.4876 3.86557C19.4876 4.04957 19.1858 4.05605 10.6461 4.05605C2.10644 4.05605 1.80459 4.04957 1.80459 3.86557C1.80459 3.76072 1.77488 3.39067 1.73859 3.04323L1.67248 2.41136H10.6461H19.6197L19.5536 3.04323ZM19.335 6.18901C19.266 6.78151 18.9736 10.833 18.9736 11.1972V11.4572H15.4735H11.9733L11.721 11.7095L11.4686 11.9618V16.8611V21.7603L11.1056 22.2548C9.91607 23.875 9.82365 24.427 9.82365 29.9136V34.4829H6.94964H4.07573L4.02289 34.1488C3.9938 33.965 3.5291 27.6857 2.99008 20.1946C2.45116 12.7035 1.9842 6.37794 1.95243 6.13761L1.89476 5.70074H10.6433H19.3919L19.335 6.18901ZM38.61 10.6348V12.2795H37.7875H36.9651V10.6348V8.99013H37.7875H38.61V10.6348ZM21.3382 17.2136V21.3253H20.927H20.5157V17.8771V14.4288L20.2633 14.1766L20.011 13.9242H17.2259H14.4407L14.1884 14.1766L13.936 14.4288V17.8771V21.3253H13.5248H13.1135V17.2136V13.1019H17.2259H21.3382V17.2136ZM41.0774 15.1577V16.3912H37.7875H34.4977V15.1577V13.9242H37.7875H41.0774V15.1577ZM18.8708 18.4471V21.3253H17.2259H15.5809V18.4471V15.5689H17.2259H18.8708V18.4471ZM16.5846 16.9633C15.7998 17.3891 15.8126 18.7035 16.6056 19.1135C17.2217 19.4321 18.0124 19.219 18.3036 18.6561C18.8896 17.5231 17.7042 16.3559 16.5846 16.9633ZM41.9197 18.3451C42.7693 19.0453 43.6623 20.4977 44.079 21.8569L44.3099 22.6102L44.3425 32.3539L44.3752 42.0975L44.0707 42.402L43.7663 42.7063H41.1881H38.61V36.7911V30.8757L38.3576 30.6235L38.1053 30.3711H34.648H31.1907L31.2334 26.4907C31.2733 22.8635 31.2908 22.5611 31.5015 21.8569C31.9043 20.5112 32.801 19.0493 33.6554 18.3451L34.0305 18.0359H37.7875H41.5446L41.9197 18.3451ZM22.1438 23.4888C22.8493 24.5663 22.912 24.896 22.959 27.7756L23.0013 30.3711H20.3659H17.7305L17.4783 30.6235L17.2259 30.8757V36.7911V42.7063H14.6477H12.0696L11.7657 42.4025L11.4618 42.0985L11.4916 33.6393C11.525 24.1375 11.475 24.761 12.3079 23.4888L12.6476 22.97H17.2259H21.8041L22.1438 23.4888ZM36.9651 33.6605V35.3052H27.9179H18.8708V33.6605V32.0158H27.9179H36.9651V33.6605ZM9.82365 37.7723V39.4169H6.94501H4.06638V37.7723V36.1276H6.94501H9.82365V37.7723ZM36.9651 40.7612V44.5724L36.6646 44.8729L36.3641 45.1734H27.9179H19.4718L19.1713 44.8729L18.8708 44.5724V40.7612V36.9499H27.9179H36.9651V40.7612Z" fill="#CDA582"/>
</svg>
