<svg width="30" height="30" viewBox="0 0 49 72" fill="none" xmlns="http://www.w3.org/2000/svg">
<path fill-rule="evenodd" clip-rule="evenodd" d="M37.1451 10.946C32.3214 11.4413 33.682 15.3954 28.5289 19.6391C25.3136 22.2761 23.0875 23.6342 20.6141 25.5718C15.008 29.9802 11.8332 35.0058 11.9574 42.4213C13.2759 30.4739 22.9228 24.8709 26.88 21.9454C21.1502 26.971 18.5116 31.1322 16.8216 34.5526C13.2349 41.8019 13.0702 47.1583 20.2847 52.4721C23.2532 54.6153 27.3751 57.2096 28.0759 63.1833C26.3028 60.1347 22.3041 56.7569 19.0067 55.8089C25.8087 61.0417 28.983 65.0368 27.9522 72C25.684 62.4429 14.4718 59.5179 9.23614 51.3185C-3.00732 30.6795 20.16 26.971 26.8384 17.0433C19.748 24.0475 9.73072 25.7774 4.94908 36.1169C7.66928 25.5718 11.709 22.3586 14.8417 20.0098C20.3252 16.0132 26.096 14.6945 28.7341 7.19803C24.365 14.655 20.2016 14.9842 13.9352 19.1849C8.94729 22.5232 4.16514 27.6724 2.92868 39.3301C-2.38807 28.2067 3.67158 12.6349 11.6275 5.67321C19.8722 -1.53664 30.0953 -2.9784 38.5462 7.89738C49.5948 14.4063 53.552 29.1552 38.794 47.611C49.4296 32.6976 47.0383 19.5566 40.7724 14.2412C48.1516 24.9524 43.4936 35.0463 39.165 43.9861C36.4853 49.5055 37.2687 50.7417 39.6185 56.3452C35.372 52.6367 36.5258 49.2174 31.992 45.5104C28.9004 43.0381 25.0663 41.5138 22.4688 38.7123C21.0671 37.1464 20.6141 35.458 22.4688 31.2963C23.4584 29.1962 24.5302 28.8255 25.7251 29.6074C26.8384 30.3909 30.5488 33.6861 31.0439 30.8846C31.1675 30.1012 31.0028 29.6484 31.8673 29.2783C32.4445 29.0311 33.0217 29.1547 32.857 28.3302C32.7744 27.9185 32.8981 27.7539 33.3926 27.6719C33.9698 27.5483 33.9288 27.3427 33.8462 26.6829C33.5989 25.076 34.8764 25.2821 35.6603 25.035C36.4017 24.7879 36.4017 24.2121 36.1959 23.5517C36.0723 23.1815 35.9902 22.8108 35.8666 22.4406C35.4951 21.1219 35.4541 20.2565 35.6193 19.351L37.0615 19.1849L35.784 18.6911C36.8968 15.9717 37.7213 14.737 37.1446 10.9465L37.1451 10.946ZM40.484 20.2565C41.2259 23.5517 40.9371 27.0136 40.1126 30.1858C38.6704 35.6642 36.3201 37.5176 35.2073 44.1922C35.5367 37.1469 37.6807 34.8407 39.1234 29.8135C39.9068 27.0956 40.4014 23.9649 40.484 20.2565ZM18.5116 3.11884C8.37113 7.85585 2.84711 19.2669 2.68242 30.2678C4.7849 19.5156 8.20644 10.2872 18.5116 3.11884Z" fill="#ffffff"/>
</svg>
