<svg width="49" height="73" viewBox="0 0 49 73" fill="none" xmlns="http://www.w3.org/2000/svg">
<path d="M35.9886 29.4834C34.9634 28.8182 33.1044 28.4217 31.0119 28.4217C28.9208 28.4217 27.0603 28.8182 26.0366 29.4834C25.5289 29.8125 25.3855 30.4903 25.7145 30.9965C26.0436 31.5028 26.7214 31.6476 27.2291 31.3186C27.7733 30.9656 29.1542 30.6098 31.0133 30.6098C32.8723 30.6098 34.2533 30.9656 34.7975 31.3186C34.9817 31.4381 35.1884 31.4957 35.3923 31.4957C35.7509 31.4957 36.1011 31.32 36.3106 30.9979C36.6397 30.4903 36.4948 29.8125 35.9886 29.4834Z" fill="#CDA582"/>
<path d="M30.5661 44.2616C30.1639 43.8102 29.472 43.7722 29.0206 44.1744C28.3611 44.7636 26.7073 45.3571 24.4995 45.3571C22.2903 45.3571 20.6366 44.7622 19.9784 44.1744C19.527 43.7722 18.8352 43.8102 18.433 44.2616C18.0308 44.7116 18.0688 45.4035 18.5202 45.8071C19.7394 46.8969 21.9753 47.5466 24.4995 47.5466C27.0252 47.5466 29.2597 46.8969 30.4789 45.8071C30.9303 45.4035 30.9697 44.713 30.5661 44.2616Z" fill="#CDA582"/>
<path d="M21.9106 34.6148C21.5028 34.1676 20.8109 34.1366 20.3651 34.5445C20.0487 34.8327 19.1698 35.1435 17.9872 35.1435C16.8045 35.1435 15.9256 34.8327 15.6092 34.5445C15.162 34.1366 14.4701 34.169 14.0637 34.6148C13.6559 35.062 13.6883 35.7538 14.1341 36.1602C14.9384 36.8943 16.3784 37.3316 17.9872 37.3316C19.5959 37.3316 21.0373 36.8943 21.8403 36.1602C22.2861 35.7538 22.3184 35.0606 21.9106 34.6148Z" fill="#CDA582"/>
<path d="M22.9625 29.4834C21.9374 28.8182 20.0783 28.4217 17.9872 28.4217C15.8961 28.4217 14.0356 28.8182 13.0119 29.4834C12.5056 29.8125 12.3608 30.4903 12.6899 30.9965C12.8994 31.3186 13.2509 31.4943 13.6081 31.4943C13.812 31.4943 14.0188 31.4367 14.203 31.3171C14.7472 30.9642 16.1281 30.6084 17.9872 30.6084C19.8463 30.6084 21.2272 30.9642 21.7714 31.3171C22.2791 31.6462 22.9569 31.5028 23.2845 30.9951C23.6136 30.4903 23.4702 29.8125 22.9625 29.4834Z" fill="#CDA582"/>
<path d="M34.9353 34.6148C34.5275 34.1676 33.8356 34.1366 33.3898 34.5445C33.0734 34.8327 32.1945 35.1435 31.0119 35.1435C29.8292 35.1435 28.9503 34.8327 28.6339 34.5445C28.1881 34.1366 27.4948 34.169 27.0884 34.6148C26.6806 35.062 26.713 35.7538 27.1588 36.1602C27.9631 36.8943 29.4031 37.3316 31.0119 37.3316C32.6206 37.3316 34.0606 36.8943 34.865 36.1602C35.3122 35.7538 35.3431 35.0606 34.9353 34.6148Z" fill="#CDA582"/>
<path d="M45.7058 65.2303C43.7736 63.5878 41.1383 62.6836 38.2864 62.6836C34.5331 62.6836 31.9372 61.8468 30.8445 61.4123V56.4511C36.4709 54.4106 40.8444 49.739 42.4714 43.9298C45.9941 43.4882 48.732 40.469 48.732 36.8353C48.732 33.4757 46.3555 30.5887 43.1605 29.8603V27.4373C44.4247 23.0062 44.3459 18.6539 44.052 15.7696C43.8847 14.1215 43.6316 12.7659 43.4487 11.9193C43.2786 11.1332 43.1689 10.7086 43.0873 10.4625C43.0705 10.3978 43.0494 10.3345 43.0198 10.2726C41.8077 7.7034 39.6519 5.51387 36.8928 3.87277C36.8366 3.83199 36.7775 3.79824 36.7156 3.76871C33.3252 1.80137 29.0487 0.655273 24.4995 0.655273C20.9178 0.655273 17.4148 1.36402 14.3703 2.70418C13.8177 2.94746 13.5659 3.59293 13.8092 4.14699C14.0525 4.69965 14.698 4.95137 15.252 4.70809C18.0209 3.48887 21.2188 2.8448 24.4995 2.8448C28.1291 2.8448 31.5519 3.62527 34.3897 4.99215C33.0594 6.13684 31.4759 7.23934 29.5831 8.33762C29.06 8.64137 28.8828 9.31074 29.1866 9.83387C29.3891 10.184 29.7561 10.3795 30.1344 10.3795C30.3214 10.3795 30.5098 10.3317 30.6828 10.2318C32.975 8.90152 34.8552 7.55434 36.4077 6.1298C38.3061 7.37293 39.8178 8.92121 40.7797 10.6945C40.7417 10.755 40.7023 10.814 40.663 10.8745C40.6362 10.9139 40.6095 10.9546 40.5828 10.994C38.1866 14.4843 33.1016 17.8284 25.7455 20.752C25.7019 20.7689 25.6569 20.7857 25.6133 20.804C25.453 20.8673 25.2927 20.9306 25.1309 20.9925C17.8142 23.819 10.3512 25.4798 7.72156 26.0184C7.12391 23.5954 6.93547 21.2048 6.95656 19.0687C7.86641 18.8859 8.77203 18.6243 9.65656 18.3698C10.3498 18.1687 11.067 17.962 11.7589 17.8017C11.7702 17.7989 11.7814 17.7961 11.7927 17.7932C16.2913 16.6021 20.7181 14.9934 26.1477 12.5761C26.7003 12.33 26.9478 11.6831 26.7017 11.1318C26.4556 10.5806 25.8088 10.3317 25.2575 10.5778C19.9461 12.9431 15.6247 14.5153 11.2498 15.674C10.5059 15.847 9.76484 16.0607 9.04906 16.2675C8.36422 16.4657 7.70328 16.6556 7.05641 16.8075C7.29406 13.7503 7.87625 11.5537 7.99297 11.1332C8.75094 9.56246 9.94906 8.13512 11.5564 6.88637C12.0345 6.51652 12.1203 5.82887 11.7505 5.35074C11.3792 4.87402 10.693 4.78684 10.2148 5.15668C8.30656 6.63887 6.88062 8.36012 5.97641 10.2754C5.95391 10.3246 5.93422 10.3739 5.91875 10.4259C5.81469 10.7704 3.40578 18.9281 5.83578 27.4415V29.8645C2.64359 30.5887 0.265625 33.4771 0.265625 36.8367C0.265625 40.4704 3.005 43.4896 6.52625 43.9312C8.15328 49.7404 12.5281 54.412 18.1531 56.4525V61.4137C17.0577 61.8496 14.4631 62.6864 10.7113 62.6864C7.85938 62.6864 5.22547 63.5906 3.29188 65.2331C1.34141 66.8896 0.265625 69.1382 0.265625 71.5612C0.265625 72.1659 0.755 72.6553 1.35969 72.6553H47.6394C48.2441 72.6553 48.7334 72.1659 48.7334 71.5612C48.7334 69.1382 47.6577 66.8897 45.7058 65.2303ZM42.9805 41.4914C43.0986 40.6336 43.1605 39.7673 43.1605 38.9025V32.1328C45.1292 32.7993 46.5439 34.6781 46.5439 36.8367C46.5439 39.0881 45.0294 41.0006 42.9664 41.6025C42.972 41.5659 42.9762 41.5279 42.9805 41.4914ZM2.45375 36.8367C2.45375 34.6781 3.86844 32.7993 5.83719 32.1328V38.9025C5.83719 39.7687 5.89906 40.6336 6.01719 41.4914C6.02281 41.5279 6.02563 41.5659 6.03125 41.6025C3.96828 40.9992 2.45375 39.0881 2.45375 36.8367ZM41.1875 13.7601C41.2128 13.732 41.2381 13.7025 41.2634 13.6743C41.3323 13.5956 41.3998 13.5168 41.4659 13.4381C41.4786 13.4226 41.4927 13.4071 41.5053 13.3931C42.0017 16.1592 42.508 21.0234 41.2761 26.017C39.0978 25.5712 33.598 24.359 27.6298 22.3495C33.8834 19.762 38.4214 16.8876 41.1875 13.7601ZM8.28969 41.8429C8.28828 41.8317 8.28547 41.819 8.28266 41.8078C8.10969 40.8501 8.02672 39.8756 8.02672 38.9025V28.1882C8.03656 28.1868 8.04781 28.184 8.05906 28.1812C9.75359 27.8437 11.4383 27.4486 13.1145 27.0295C14.8808 26.5879 16.6372 26.1098 18.3823 25.5909C19.5256 25.2506 20.6647 24.8934 21.7953 24.5151C21.8164 24.5081 21.8361 24.5011 21.8572 24.494H27.1447C33.2464 26.5345 38.8503 27.7579 40.9738 28.1868V38.9011C40.9738 39.8728 40.888 40.8501 40.7164 41.8078C40.715 41.819 40.7122 41.8303 40.7108 41.8415C39.5914 48.0346 34.9972 53.0339 29.0277 54.7425C29.0178 54.7453 29.008 54.7481 28.9981 54.7509C27.537 55.1615 26.0183 55.3753 24.4995 55.3753C22.985 55.3753 21.455 55.1714 19.9995 54.7509C19.9925 54.7495 19.9869 54.7467 19.9798 54.7453C14.0075 53.0381 9.41047 48.0375 8.28969 41.8429ZM2.55781 70.4657C2.81797 69.1143 3.56047 67.8754 4.70937 66.8981C6.24641 65.5917 8.37828 64.8731 10.7113 64.8731C16.3433 64.8731 19.6241 63.1645 19.7605 63.0914C20.1177 62.9015 20.3412 62.5303 20.3412 62.1253V57.0993C20.3441 57.517 24.2773 57.5648 24.4981 57.5648C25.8959 57.5648 27.2909 57.4101 28.655 57.0993V62.1267C28.655 62.5317 28.8786 62.9029 29.2358 63.0928C29.3722 63.1659 32.653 64.8745 38.285 64.8745C40.618 64.8745 42.7498 65.5931 44.2869 66.8995C45.4372 67.8768 46.1783 69.1157 46.4384 70.4671H2.55781V70.4657Z" fill="#CDA582"/>
</svg>
