<svg width="73" height="75" viewBox="0 0 73 75" fill="none" xmlns="http://www.w3.org/2000/svg">
<path d="M11.4194 59.0244C11.1995 59.5826 10.6655 59.9221 10.0996 59.9221C9.92578 59.9221 9.74838 59.8901 9.57631 59.8208C4.14625 57.6645 0.85203 54.8931 0.0466578 51.8089C-0.152024 51.0499 0.302106 50.2713 1.06136 50.0739C1.82061 49.8766 2.59582 50.3299 2.79273 51.0908C3.35152 53.231 6.13307 55.3944 10.6247 57.1792C11.352 57.4672 11.7086 58.2938 11.4194 59.0244ZM16.2428 44.1366C16.5107 44.3641 16.8371 44.4761 17.1617 44.4761C17.5626 44.4761 17.9618 44.3055 18.242 43.9766C18.7512 43.3793 18.6784 42.4816 18.0824 41.9714C17.3781 41.3706 16.6898 40.7342 16.0353 40.0782C9.79805 33.828 6.53221 25.8837 7.52208 19.5517C10.183 19.1339 13.1278 19.4717 16.1115 20.4707C16.2375 20.5365 16.3759 20.5845 16.5195 20.6112C20.4914 22.0191 24.5147 24.5842 28.0059 28.0826C28.884 28.9626 29.7213 29.8976 30.4929 30.8575C30.9843 31.4691 31.8784 31.565 32.4886 31.0726C33.0989 30.5802 33.1947 29.6843 32.7033 29.0728C31.8677 28.0329 30.963 27.0232 30.0122 26.0703C26.4253 22.4759 22.2884 19.7828 18.1285 18.1936C18.0274 15.6213 18.462 13.273 19.3827 11.4225C21.7261 11.9327 24.1511 13.3619 26.3313 15.5253C26.0279 16.7394 25.7849 17.9945 25.6093 19.2815C25.5028 20.0601 26.0456 20.7765 26.8226 20.8832C27.5996 20.9898 28.3145 20.4458 28.421 19.6672C29.3753 12.6988 32.3946 6.84861 36.5705 3.79282C40.7464 6.84861 43.7656 12.6971 44.72 19.6637C44.8264 20.4423 45.5413 20.9863 46.3183 20.8796C47.0953 20.7729 47.6381 20.0548 47.5317 19.2779C47.3561 17.9909 47.1131 16.7377 46.8097 15.5253C48.9899 13.3619 51.4167 11.9327 53.7583 11.4225C54.6772 13.273 55.1136 15.6213 55.0124 18.1936C50.8525 19.7846 46.7157 22.4777 43.1288 26.0703C42.1779 27.0232 41.2732 28.0329 40.4377 29.0728C39.9463 29.6843 40.0421 30.5802 40.6523 31.0726C41.2626 31.565 42.1566 31.4691 42.648 30.8575C43.4197 29.8976 44.257 28.9643 45.1351 28.0826C48.6262 24.5842 52.6478 22.0173 56.6197 20.6112C56.7651 20.5845 56.9035 20.5365 57.0294 20.4707C60.0132 19.4735 62.958 19.1339 65.6189 19.5517C66.6087 25.8855 63.3429 33.8298 57.1057 40.0782C56.4511 40.7342 55.7628 41.3706 55.0586 41.9714C54.4625 42.4798 54.3898 43.3775 54.8971 43.9766C55.4045 44.5739 56.3003 44.6468 56.8982 44.1384C57.6592 43.4895 58.4042 42.7998 59.112 42.0905C66.3214 34.8679 69.8923 25.4197 68.2142 18.0229C68.0936 17.4896 67.6784 17.0736 67.1445 16.951C64.276 16.2968 61.0989 16.4372 57.8614 17.2781C57.8313 14.1459 57.0862 11.2945 55.7061 9.09911C55.4151 8.63692 54.8847 8.38272 54.3419 8.44493C51.4912 8.77558 48.5429 10.1977 45.8926 12.4998C44.0601 7.36768 41.0568 3.22753 37.3244 0.873924C36.8632 0.58239 36.2742 0.58239 35.813 0.873924C32.0806 3.22753 29.0773 7.36768 27.2448 12.4998C24.5946 10.1977 21.6498 8.77558 18.7955 8.44493C18.2527 8.38272 17.7241 8.63692 17.4331 9.09911C16.0548 11.2945 15.3115 14.1459 15.2813 17.2781C12.0456 16.4372 8.86673 16.2968 5.99826 16.951C5.46607 17.0719 5.05097 17.4896 4.92856 18.0229C3.24863 25.4197 6.82137 34.8661 14.0307 42.0905C14.7367 42.798 15.4818 43.486 16.2428 44.1366ZM15.5705 55.2576C15.8295 54.5163 15.4392 53.7057 14.6995 53.4461C10.4172 51.9458 7.8609 50.049 7.8609 48.3745C7.8609 47.2919 8.97494 46.0689 10.9972 44.9294C11.6802 44.5454 11.9232 43.678 11.5383 42.9936C11.1551 42.3092 10.2894 42.0656 9.60647 42.4514C6.56414 44.165 5.02258 46.1578 5.02258 48.3763C5.02258 51.4481 8.04539 54.1288 13.7628 56.1339C13.9172 56.189 14.075 56.2139 14.2311 56.2139C14.8183 56.2122 15.3665 55.8442 15.5705 55.2576ZM58.1612 53.5457C57.4197 53.7981 57.0223 54.6052 57.2742 55.35C57.4747 55.942 58.0264 56.3153 58.6171 56.3153C58.7679 56.3153 58.9222 56.2904 59.073 56.2388C64.9927 54.2247 68.1237 51.5049 68.1237 48.3745C68.1237 46.236 66.6868 44.3037 63.8538 42.6309C63.1779 42.2327 62.3087 42.4567 61.9113 43.134C61.514 43.8113 61.7375 44.6823 62.4134 45.0805C64.2654 46.1738 65.2854 47.3435 65.2854 48.3727C65.2836 50.0686 62.5553 52.0507 58.1612 53.5457ZM50.6468 63.9396C50.6468 65.3795 49.4777 66.5527 48.0391 66.5527C47.255 66.5527 46.6199 67.1891 46.6199 67.9749C46.6199 68.7606 47.255 69.397 48.0391 69.397C51.0424 69.397 53.4851 66.9492 53.4851 63.9396C53.4851 63.1539 52.85 62.5175 52.0659 62.5175C51.2818 62.5175 50.6468 63.1539 50.6468 63.9396ZM71.9377 50.0739C71.1802 49.8766 70.4032 50.3299 70.2063 51.0908C69.6475 53.2328 66.8677 55.3944 62.3761 57.1792C61.647 57.469 61.2905 58.2956 61.5796 59.0262C61.7996 59.5844 62.3353 59.9239 62.8994 59.9239C63.0733 59.9239 63.2507 59.8919 63.4227 59.8226C68.8528 57.6645 72.1488 54.8931 72.9542 51.8089C73.1511 51.0499 72.6952 50.273 71.9377 50.0739ZM46.7192 50.6908C46.7192 51.4658 46.0913 52.0951 45.3178 52.0951C44.5337 52.0951 43.8987 52.7315 43.8987 53.5172C43.8987 54.303 44.5337 54.9394 45.3178 54.9394C47.6559 54.9394 49.5576 53.0337 49.5576 50.6908C49.5576 49.9051 48.9225 49.2687 48.1384 49.2687C47.3543 49.2687 46.7192 49.9068 46.7192 50.6908ZM42.664 41.6088H43.0348C43.8188 41.6088 44.4539 40.9724 44.4539 40.1866C44.4539 39.4009 43.8188 38.7645 43.0348 38.7645H42.664C41.8799 38.7645 41.2448 39.4009 41.2448 40.1866C41.2448 40.9724 41.8817 41.6088 42.664 41.6088ZM57.3239 57.9134C58.6242 59.7212 59.3125 61.8526 59.3125 64.0765C59.3125 69.9089 54.5778 74.6553 48.7557 74.6553H24.3906C18.5702 74.6553 13.8338 69.9107 13.8338 64.0783C13.8338 60.2083 15.9732 56.6672 19.294 54.822C18.8292 53.7697 18.572 52.6035 18.572 51.3805C18.572 47.6599 20.958 44.4868 24.277 43.3171C23.5444 42.2541 23.1133 40.9653 23.1133 39.5769C23.1133 35.9416 26.0652 32.9836 29.6929 32.9836H43.4534C47.0811 32.9836 50.033 35.9416 50.033 39.5769C50.033 43.2122 47.0811 46.1702 43.4534 46.1702H29.6929C28.8095 46.1702 27.9668 45.9942 27.1952 45.6778C27.1632 45.6796 27.1295 45.6814 27.0976 45.6814C23.9613 45.6814 21.4103 48.2376 21.4103 51.3805C21.4103 52.5555 21.7669 53.6506 22.3789 54.5589C22.4268 54.6176 22.4711 54.6798 22.5102 54.7456C23.5462 56.1588 25.2172 57.0797 27.0976 57.0797H46.0487C49.185 57.0797 51.736 54.5234 51.736 51.3805C51.736 49.6882 50.9838 48.0901 49.6711 46.9968C49.0679 46.4955 48.9863 45.5978 49.4866 44.9934C49.9869 44.389 50.8827 44.3072 51.4858 44.8085C53.4478 46.444 54.5743 48.8385 54.5743 51.3787C54.5743 56.0895 50.7497 59.9221 46.0487 59.9221H27.0976C24.6407 59.9221 22.4232 58.8751 20.8657 57.2023C18.3236 58.5195 16.6721 61.1718 16.6721 64.0765C16.6721 68.3411 20.1349 71.811 24.3906 71.811H48.7557C53.0114 71.811 56.4742 68.3411 56.4742 64.0783C56.4742 62.4553 55.9722 60.8998 55.0213 59.579C54.5636 58.9426 54.7073 58.0538 55.3424 57.5934C55.9775 57.133 56.8645 57.277 57.3239 57.9134ZM25.9516 39.5769C25.9516 41.6443 27.6298 43.326 29.6929 43.326H43.4534C45.5165 43.326 47.1947 41.6443 47.1947 39.5769C47.1947 37.5095 45.5165 35.8279 43.4534 35.8279H29.6929C27.6298 35.8279 25.9516 37.5095 25.9516 39.5769Z" fill="#CDA582"/>
</svg>
