<svg width="67" height="79" viewBox="0 0 67 79" fill="none" xmlns="http://www.w3.org/2000/svg">
<path d="M12.8595 32.1668C13.7112 32.1668 14.4016 31.4764 14.4016 30.6248C14.4016 29.7731 13.7112 29.0827 12.8595 29.0827C12.0079 29.0827 11.3175 29.7731 11.3175 30.6248C11.3175 31.4764 12.0079 32.1668 12.8595 32.1668Z" fill="#CDA582"/>
<path d="M65.015 29.008C64.0444 27.8926 62.609 27.2542 61.0776 27.2542H48.6041V24.6135C48.6041 20.7462 45.4575 17.5996 41.5902 17.5996H40.3818V17.403C40.3818 14.6389 38.1906 12.3791 35.4539 12.2649V9.63484C36.5998 9.36665 37.5948 8.98114 38.4314 8.47373C39.9856 7.53051 40.6591 6.39074 40.9502 5.60142C41.5993 3.83842 40.9167 1.81791 39.3959 1.00269C38.9632 0.772604 38.5045 0.655273 38.0306 0.655273C36.999 0.655273 36.0299 1.22821 35.4448 2.16533C35.1492 2.35885 34.0186 2.94245 31.1371 2.94245H23.9586C20.3123 2.94245 18.0464 5.43533 18.0464 9.45046C18.0464 11.4176 19.4635 13.0191 21.2067 13.0191C22.7594 13.0191 24.0546 11.7483 24.3182 10.0798H27.7665V12.2649C25.0298 12.3791 22.8387 14.6389 22.8387 17.403V17.5996H21.6288C17.7615 17.5996 14.6149 20.7462 14.6149 24.6135V24.7171H10.0954C8.09012 24.7171 6.45816 26.349 6.45816 28.3543V35.228C5.36258 36.1652 4.66621 37.5548 4.66621 39.1076V41.3734C2.5878 42.8575 1.17221 45.2285 0.990886 47.9485C0.913174 49.1416 0.858318 50.4063 0.829367 51.7045C0.815653 52.3613 1.33526 52.9053 1.992 52.9205C2.64722 52.9357 3.19273 52.4146 3.20644 51.7579C3.23387 50.4947 3.2872 49.2665 3.36339 48.1054C3.52186 45.7039 5.00297 43.6758 7.06005 42.7158C7.07529 42.7097 7.089 42.7021 7.10272 42.696C7.92555 42.3227 8.83677 42.1216 9.74036 42.1216H15.9756C16.8823 42.1216 17.7889 42.3227 18.6133 42.696C18.6285 42.7021 18.6422 42.7097 18.6559 42.7158C20.7359 43.6804 22.2002 45.8152 22.3526 48.1054C22.473 49.9111 22.5324 51.767 22.5324 53.6184C22.5324 54.4946 22.508 55.3692 22.4897 56.2438C22.4882 56.2743 22.4882 56.3048 22.4867 56.3368C22.476 56.6461 21.6151 57.4994 21.4353 57.8194C21.1397 58.3451 20.9004 58.8983 20.7237 59.4742C20.3214 60.7816 20.2361 62.1606 20.2117 63.5198C20.1766 65.5556 20.3793 67.6005 20.8288 69.5875C20.8303 69.5966 20.8319 69.6042 20.8349 69.6134C20.0837 71.6796 18.1516 73.0464 15.936 73.0464H9.77998C7.33128 73.0464 5.18582 71.3002 4.67536 68.8942C3.86624 65.0771 3.38168 60.8913 3.23387 56.4511C3.21254 55.7943 2.65941 55.2793 2.00572 55.3022C1.34897 55.3235 0.833938 55.8736 0.856795 56.5303C1.00917 61.1092 1.51202 65.4352 2.34856 69.3879C3.08911 72.8864 6.21589 75.4266 9.77998 75.4266H15.939C18.2552 75.4266 20.358 74.4011 21.7644 72.7112C22.5156 74.7119 23.5274 76.5679 24.7784 78.2074C25.0039 78.5015 25.3529 78.6752 25.7232 78.6752H48.1667C48.537 78.6752 48.8875 78.5015 49.1115 78.2074C49.4741 77.7336 49.8155 77.2398 50.137 76.7324H60.363C61.0197 76.7324 61.553 76.2006 61.553 75.5424V65.7232L64.3766 45.3261C64.4665 44.6754 64.0124 44.075 63.3618 43.9851C62.7096 43.8952 62.1107 44.3493 62.0208 45L59.7626 61.3165H53.5456C53.4649 60.5348 53.2942 59.7638 53.0184 59.0278C52.1712 56.7695 50.4372 54.9883 48.2627 54.0588L48.2201 53.7464L45.2579 32.3466C45.2472 32.2704 45.2411 32.1927 45.2381 32.1165C45.2381 32.1119 45.2381 32.1089 45.2381 32.1043C45.2167 31.3348 45.6297 30.6415 46.23 30.1859C46.7131 29.8202 47.347 29.6343 47.9488 29.6343H61.0791C61.9218 29.6343 62.7035 29.9756 63.2231 30.5714C63.665 31.0788 63.86 31.7097 63.7716 32.3451L62.6791 40.2397C62.5892 40.8904 63.0433 41.4907 63.6939 41.5806C64.3446 41.6705 64.9449 41.2165 65.0348 40.5658L66.1274 32.6696C66.3102 31.3424 65.9156 30.0411 65.015 29.008ZM23.9571 7.69965C23.4086 7.69965 22.7274 7.76213 22.3328 8.1964C22.0235 8.5362 21.9869 9.01314 21.9869 9.45046C21.9869 10.1514 21.5755 10.6405 21.2052 10.6405C20.8349 10.6405 20.4235 10.1514 20.4235 9.45046C20.4235 5.85742 22.6375 5.32257 23.9571 5.32257H31.1356C32.2449 5.32257 33.3969 5.25248 34.4985 5.01477C35.4478 4.80906 36.5099 4.50431 37.2078 3.79119C37.4623 3.53062 37.5857 3.03692 38.0291 3.03692C38.1083 3.03692 38.1861 3.05826 38.2668 3.10092C38.6874 3.32644 38.9678 4.09289 38.7133 4.78164C38.5091 5.33629 37.6238 6.90425 34.0963 7.48328C34.0871 7.4848 34.0795 7.4848 34.0704 7.48633C33.1012 7.6448 32.1169 7.70118 31.1356 7.70118L23.9571 7.69965ZM33.0723 10.0005V12.2572H30.1451V10.0783C30.1482 10.1301 33.0723 10.0249 33.0723 10.0005ZM27.9814 14.6358H35.236C36.7598 14.6358 38.0002 15.8762 38.0002 17.4V17.5965H25.2173V17.4C25.2173 15.8762 26.4576 14.6358 27.9814 14.6358ZM8.83829 28.3589V28.3528C8.83829 27.6595 9.40208 27.0957 10.0954 27.0957H15.6221C15.6495 27.0957 15.6754 27.0987 15.7013 27.1003C15.7074 27.1003 15.712 27.1018 15.7166 27.1018C17.1108 27.2039 16.8792 28.8267 16.8792 29.8019C16.8792 30.9859 16.8792 32.1698 16.8792 33.3538C16.8792 33.5991 16.8792 33.8429 16.8792 34.0883C16.5729 34.0319 16.2606 34.0029 15.9482 34.0029C15.9482 34.0029 9.77084 34.0029 9.76779 34.0029C9.4798 34.0029 9.14304 34.0867 8.83981 34.0776C8.74991 32.1836 8.83829 30.2575 8.83829 28.3589ZM18.6727 40.1651C18.6727 39.8192 16.3108 39.7399 15.9756 39.7399H9.74341C8.83067 39.7399 7.91489 39.8847 7.04634 40.1651V39.1045C7.04634 37.6341 8.29888 36.38 9.77084 36.38H15.9512C16.8457 36.38 17.7097 36.8432 18.2095 37.5838C18.7306 38.3563 18.6727 39.2767 18.6727 40.1651ZM51.9716 73.2278C51.9899 73.1683 52.0036 73.1226 52.0143 73.0937C52.4272 71.9265 52.7959 70.7379 53.0657 69.5281C53.4923 67.6172 53.7011 65.6501 53.6782 63.692H59.1744V74.3493C59.1744 74.3493 51.4398 74.3493 51.4367 74.3493C51.6409 74.3508 51.8664 73.5752 51.9716 73.2278ZM50.6947 59.6388H45.0781C44.4213 59.6388 43.888 60.1706 43.888 60.8289C43.888 61.4871 44.4198 62.0189 45.0781 62.0189H51.2188C51.2234 62.0692 51.2265 62.121 51.231 62.1713C51.6013 67.0992 50.4585 72.2373 47.5664 76.2951H26.3251C24.8668 74.2502 23.8108 71.8503 23.1998 69.2599C22.6436 66.8996 22.4699 64.4356 22.6711 62.0189H40.3193C40.9761 62.0189 41.5094 61.4871 41.5094 60.8289C41.5094 60.1706 40.9776 59.6388 40.3193 59.6388H23.1922C23.5 58.9089 23.9449 58.24 24.5118 57.6609C25.6988 56.448 27.3947 55.7258 29.112 55.7258H44.7779C45.3219 55.7258 45.8582 55.7959 46.3748 55.9315C48.2795 56.4267 49.9145 57.7889 50.6947 59.6388ZM46.2239 27.5361C46.2239 27.5284 44.8053 28.272 44.6697 28.3787C42.3353 30.2392 42.9372 32.9576 43.2922 35.5252L45.7668 53.402C45.7592 53.4005 45.7516 53.4005 45.7424 53.4005C45.6068 53.3853 45.4697 53.3746 45.3325 53.3655C45.3021 53.3639 45.2731 53.3609 45.2426 53.3594C45.0887 53.3517 44.9333 53.3456 44.7764 53.3456H29.112C28.3578 53.3456 27.605 53.4432 26.8751 53.6336C26.5201 53.7266 26.1696 53.8409 25.8298 53.975C25.7049 54.0252 24.911 54.301 24.9095 54.4047C24.9125 54.1395 24.9125 53.8774 24.9125 53.6153C24.9125 51.7106 24.85 49.8029 24.7266 47.9454C24.6367 46.5908 24.2222 45.2544 23.5381 44.0827C23.2272 43.5509 22.86 43.0511 22.4455 42.5955C22.2307 42.3593 22.0036 42.1353 21.7644 41.925C21.6745 41.8458 21.0513 41.4435 21.0513 41.3597V39.103C21.0513 37.6356 20.3885 36.1804 19.2593 35.2204V28.3513C19.2593 28.2659 19.2548 28.1821 19.2487 28.0983C19.2471 28.0816 19.2456 28.0633 19.2441 28.0465C19.1283 26.6584 18.2308 25.4896 16.9935 24.9838V24.6104C16.9935 22.0551 19.0734 19.9751 21.6288 19.9751H41.5871C44.1425 19.9751 46.2224 22.0551 46.2224 24.6104C46.2239 24.612 46.2239 27.5361 46.2239 27.5361Z" fill="#CDA582"/>
</svg>
