<svg width="57" height="56" viewBox="0 0 57 56" fill="none" xmlns="http://www.w3.org/2000/svg">
<rect x="0.75" width="56" height="56" rx="28" fill="#F04438"/>
<path d="M26.1875 30.8125C26.1875 30.2947 25.7678 29.875 25.25 29.875C24.7322 29.875 24.3125 30.2947 24.3125 30.8125C24.3125 33.4013 26.4112 35.5 29 35.5C31.5888 35.5 33.6875 33.4013 33.6875 30.8125C33.6875 30.2947 33.2678 29.875 32.75 29.875C32.2322 29.875 31.8125 30.2947 31.8125 30.8125C31.8125 32.3658 30.5533 33.625 29 33.625C27.4467 33.625 26.1875 32.3658 26.1875 30.8125Z" fill="white"/>
<path d="M27.125 24.25C27.125 25.2855 26.2855 26.125 25.25 26.125C24.2145 26.125 23.375 25.2855 23.375 24.25C23.375 23.2145 24.2145 22.375 25.25 22.375C26.2855 22.375 27.125 23.2145 27.125 24.25Z" fill="white"/>
<path d="M32.75 26.125C33.7855 26.125 34.625 25.2855 34.625 24.25C34.625 23.2145 33.7855 22.375 32.75 22.375C31.7145 22.375 30.875 23.2145 30.875 24.25C30.875 25.2855 31.7145 26.125 32.75 26.125Z" fill="white"/>
<path fill-rule="evenodd" clip-rule="evenodd" d="M29 15.8125C22.269 15.8125 16.8125 21.269 16.8125 28C16.8125 34.731 22.269 40.1875 29 40.1875C35.731 40.1875 41.1875 34.731 41.1875 28C41.1875 21.269 35.731 15.8125 29 15.8125ZM18.6875 28C18.6875 22.3046 23.3046 17.6875 29 17.6875C34.6954 17.6875 39.3125 22.3046 39.3125 28C39.3125 33.6954 34.6954 38.3125 29 38.3125C23.3046 38.3125 18.6875 33.6954 18.6875 28Z" fill="white"/>
</svg>
