<svg width="57" height="56" viewBox="0 0 57 56" fill="none" xmlns="http://www.w3.org/2000/svg">
<rect x="0.5" width="56" height="56" rx="28" fill="#6366F1"/>
<g clip-path="url(#clip0_1_65)">
<path d="M26.964 24.746C27.191 24.566 27.461 24.435 27.75 24.352V27.147C27.4647 27.0689 27.1976 26.9353 26.964 26.754C26.57 26.441 26.418 26.073 26.418 25.75C26.418 25.427 26.57 25.059 26.964 24.746ZM29.25 31.662V28.838C29.597 28.923 29.914 29.066 30.171 29.259C30.598 29.579 30.75 29.945 30.75 30.25C30.75 30.555 30.598 30.921 30.171 31.241C29.8954 31.4415 29.5821 31.5854 29.25 31.662Z" fill="white"/>
<path fill-rule="evenodd" clip-rule="evenodd" d="M28.5 18.25C23.115 18.25 18.75 22.615 18.75 28C18.75 33.385 23.115 37.75 28.5 37.75C33.885 37.75 38.25 33.385 38.25 28C38.25 22.615 33.885 18.25 28.5 18.25ZM29.25 22C29.25 21.8011 29.171 21.6103 29.0303 21.4697C28.8897 21.329 28.6989 21.25 28.5 21.25C28.3011 21.25 28.1103 21.329 27.9697 21.4697C27.829 21.6103 27.75 21.8011 27.75 22V22.816C27.1229 22.9215 26.5318 23.1813 26.03 23.572C25.318 24.138 24.918 24.922 24.918 25.75C24.918 26.579 25.318 27.362 26.031 27.928C26.533 28.328 27.133 28.575 27.75 28.684V31.662C27.4178 31.585 27.1046 31.4418 26.829 31.241L25.95 30.581C25.8712 30.5219 25.7815 30.4789 25.6861 30.4545C25.5907 30.43 25.4914 30.4246 25.3939 30.4385C25.197 30.4667 25.0193 30.5719 24.9 30.731C24.7807 30.8901 24.7294 31.0902 24.7575 31.2871C24.7857 31.484 24.8909 31.6617 25.05 31.781L25.929 32.441C26.462 32.841 27.098 33.086 27.75 33.191V34C27.75 34.1989 27.829 34.3897 27.9697 34.5303C28.1103 34.671 28.3011 34.75 28.5 34.75C28.6989 34.75 28.8897 34.671 29.0303 34.5303C29.171 34.3897 29.25 34.1989 29.25 34V33.19C29.9086 33.091 30.5334 32.834 31.071 32.441C31.816 31.882 32.25 31.097 32.25 30.25C32.25 29.403 31.816 28.618 31.071 28.059C30.5335 27.6655 29.9087 27.4082 29.25 27.309V24.354C29.54 24.436 29.809 24.567 30.036 24.747L30.451 25.077C30.6068 25.2007 30.8054 25.2575 31.0031 25.2348C31.2007 25.2121 31.3813 25.1118 31.505 24.956C31.6287 24.8002 31.6855 24.6016 31.6628 24.4039C31.6401 24.2063 31.5398 24.0257 31.384 23.902L30.969 23.572C30.4674 23.1818 29.8767 22.9224 29.25 22.817V22Z" fill="white"/>
</g>
<defs>
<clipPath id="clip0_1_65">
<rect width="24" height="24" fill="white" transform="translate(16.5 16)"/>
</clipPath>
</defs>
</svg>
