<svg width="56" height="56" viewBox="0 0 56 56" fill="none" xmlns="http://www.w3.org/2000/svg">
<rect width="56" height="56" rx="28" fill="#10B981"/>
<g clip-path="url(#clip0_1_32)">
<path d="M20.5 22.375C20.5 21.281 20.9346 20.2318 21.7082 19.4582C22.4818 18.6846 23.531 18.25 24.625 18.25C25.719 18.25 26.7682 18.6846 27.5418 19.4582C28.3154 20.2318 28.75 21.281 28.75 22.375C28.75 23.469 28.3154 24.5182 27.5418 25.2918C26.7682 26.0654 25.719 26.5 24.625 26.5C23.531 26.5 22.4818 26.0654 21.7082 25.2918C20.9346 24.5182 20.5 23.469 20.5 22.375ZM30.25 24.625C30.25 24.1818 30.3373 23.7429 30.5069 23.3334C30.6765 22.924 30.9251 22.5519 31.2385 22.2385C31.5519 21.9251 31.924 21.6765 32.3334 21.5069C32.7429 21.3373 33.1818 21.25 33.625 21.25C34.0682 21.25 34.5071 21.3373 34.9166 21.5069C35.326 21.6765 35.6981 21.9251 36.0115 22.2385C36.3249 22.5519 36.5735 22.924 36.7431 23.3334C36.9127 23.7429 37 24.1818 37 24.625C37 25.5201 36.6444 26.3785 36.0115 27.0115C35.3786 27.6444 34.5201 28 33.625 28C32.7299 28 31.8715 27.6444 31.2385 27.0115C30.6056 26.3785 30.25 25.5201 30.25 24.625ZM17.5 35.125C17.5 33.2353 18.2507 31.4231 19.5869 30.0869C20.9231 28.7507 22.7353 28 24.625 28C26.5147 28 28.3269 28.7507 29.6631 30.0869C30.9993 31.4231 31.75 33.2353 31.75 35.125V35.128L31.749 35.247C31.7469 35.3742 31.7125 35.4987 31.6489 35.6089C31.5854 35.7191 31.495 35.8114 31.386 35.877C29.3452 37.106 27.0073 37.7536 24.625 37.75C22.153 37.75 19.839 37.066 17.865 35.877C17.7559 35.8115 17.6652 35.7193 17.6015 35.6091C17.5378 35.4989 17.5032 35.3743 17.501 35.247L17.5 35.125ZM33.25 35.128L33.249 35.272C33.2434 35.6053 33.1638 35.9332 33.016 36.232C34.7617 36.3397 36.5054 35.9916 38.076 35.222C38.1975 35.1626 38.3006 35.0715 38.3745 34.9583C38.4485 34.8451 38.4904 34.7141 38.496 34.579C38.5313 33.7402 38.3494 32.9066 37.9679 32.1588C37.5864 31.4109 37.0183 30.7743 36.3185 30.3105C35.6188 29.8467 34.8111 29.5715 33.9738 29.5115C33.1364 29.4515 32.2977 29.6087 31.539 29.968C32.6522 31.4566 33.2522 33.2662 33.249 35.125L33.25 35.128Z" fill="white"/>
</g>
<defs>
<clipPath id="clip0_1_32">
<rect width="24" height="24" fill="white" transform="translate(16 16)"/>
</clipPath>
</defs>
</svg>
