<svg width="47" height="35" viewBox="0 0 47 35" fill="none" xmlns="http://www.w3.org/2000/svg">
<path d="M16.4394 0L18.9583 4.50757C17.5442 6.45202 16.2184 8.61742 14.9811 11.0038C13.8321 13.3902 13.1692 15.8649 12.9924 18.428L20.2841 19.7538V35H0V24.1288C0 17.8535 1.45833 12.8157 4.375 9.01516C7.38005 5.12626 11.4015 2.12121 16.4394 0ZM42.6894 0L45.2083 4.50757C43.7942 6.45202 42.4684 8.61742 41.2311 11.0038C40.0821 13.3902 39.4192 15.8649 39.2424 18.428L46.5341 19.7538V35H26.25V24.1288C26.25 17.8535 27.7083 12.8157 30.625 9.01516C33.6301 5.12626 37.6515 2.12121 42.6894 0Z" fill="#CDA582"/>
</svg>
