<svg width="120" height="101" viewBox="0 0 120 101" fill="none" xmlns="http://www.w3.org/2000/svg">
<g clip-path="url(#clip0_2_3)">
<path d="M59.8676 100.042C84.2871 100.042 104.083 96.3428 104.083 91.78C104.083 87.2172 84.2871 83.5183 59.8676 83.5183C35.4481 83.5183 15.6522 87.2172 15.6522 91.78C15.6522 96.3428 35.4481 100.042 59.8676 100.042Z" fill="#F5F5F5" fill-opacity="0.8"/>
<path fill-rule="evenodd" clip-rule="evenodd" d="M95.2396 67.5087L79.6363 48.3054C78.8876 47.4015 77.7933 46.8544 76.6409 46.8544H43.093C41.9413 46.8544 40.847 47.4015 40.0983 48.3054L24.4957 67.5087V77.5411H95.2402V67.5087H95.2396Z" fill="#AEB8C2"/>
<path fill-rule="evenodd" clip-rule="evenodd" d="M37.7152 22.0691H82.0193C82.7112 22.0691 83.3748 22.344 83.864 22.8332C84.3532 23.3224 84.628 23.986 84.628 24.6778V85.5544C84.628 86.2462 84.3532 86.9098 83.864 87.399C83.3748 87.8882 82.7112 88.1631 82.0193 88.1631H37.7152C37.0233 88.1631 36.3598 87.8882 35.8706 87.399C35.3814 86.9098 35.1065 86.2462 35.1065 85.5544V24.6778C35.1065 23.986 35.3814 23.3224 35.8706 22.8332C36.3598 22.344 37.0233 22.0691 37.7152 22.0691Z" fill="#F5F5F7"/>
<path fill-rule="evenodd" clip-rule="evenodd" d="M43.4856 28.5602H76.2489C76.5948 28.5602 76.9266 28.6976 77.1712 28.9423C77.4158 29.1869 77.5533 29.5186 77.5533 29.8646V46.1409C77.5533 46.4868 77.4158 46.8186 77.1712 47.0632C76.9266 47.3078 76.5948 47.4452 76.2489 47.4452H43.4856C43.1397 47.4452 42.8079 47.3078 42.5633 47.0632C42.3187 46.8186 42.1813 46.4868 42.1813 46.1409V29.8646C42.1813 29.5186 42.3187 29.1869 42.5633 28.9423C42.8079 28.6976 43.1397 28.5602 43.4856 28.5602ZM43.6565 54.5259H76.078C76.4693 54.5259 76.8445 54.6813 77.1212 54.958C77.3978 55.2346 77.5533 55.6098 77.5533 56.0011C77.5533 56.3923 77.3978 56.7676 77.1212 57.0442C76.8445 57.3209 76.4693 57.4763 76.078 57.4763H43.6565C43.2653 57.4763 42.89 57.3209 42.6134 57.0442C42.3367 56.7676 42.1813 56.3923 42.1813 56.0011C42.1813 55.6098 42.3367 55.2346 42.6134 54.958C42.89 54.6813 43.2653 54.5259 43.6565 54.5259ZM43.6565 62.1974H76.078C76.4694 62.1974 76.8447 62.3529 77.1214 62.6296C77.3981 62.9063 77.5536 63.2816 77.5536 63.6729C77.5536 64.0643 77.3981 64.4396 77.1214 64.7163C76.8447 64.993 76.4694 65.1485 76.078 65.1485H43.6565C43.2652 65.1485 42.8899 64.993 42.6132 64.7163C42.3364 64.4396 42.181 64.0643 42.181 63.6729C42.181 63.2816 42.3364 62.9063 42.6132 62.6296C42.8899 62.3529 43.2652 62.1974 43.6565 62.1974ZM95.0954 90.5683C94.59 92.5711 92.8148 94.0639 90.703 94.0639H29.0315C26.9198 94.0639 25.1446 92.5704 24.6398 90.5683C24.5435 90.1866 24.4949 89.7945 24.495 89.4009V67.5094H41.6589C43.5548 67.5094 45.0828 69.1059 45.0828 71.0441V71.0702C45.0828 73.0078 46.6285 74.5724 48.5243 74.5724H71.2102C73.1061 74.5724 74.6517 72.9935 74.6517 71.0552V71.0474C74.6517 69.1091 76.1798 67.5087 78.0757 67.5087H95.2396V89.4015C95.2396 89.8039 95.1893 90.1946 95.0954 90.5683Z" fill="#DCE0E6"/>
<path fill-rule="evenodd" clip-rule="evenodd" d="M97.2528 23.127L92.7985 24.8552C92.684 24.8997 92.5594 24.911 92.4388 24.8878C92.3183 24.8646 92.2067 24.8078 92.117 24.724C92.0272 24.6402 91.963 24.5328 91.9316 24.4141C91.9002 24.2954 91.903 24.1703 91.9396 24.0531L93.2028 20.005C91.5143 18.085 90.523 15.7437 90.523 13.2172C90.523 6.69871 97.1217 1.41479 105.262 1.41479C113.401 1.41479 120 6.69871 120 13.2172C120 19.7357 113.401 25.0196 105.262 25.0196C102.308 25.0196 99.5589 24.3244 97.2528 23.127Z" fill="#DCE0E6"/>
<path d="M111.068 15.3485C112.094 15.3485 112.926 14.5266 112.926 13.5126C112.926 12.4987 112.094 11.6768 111.068 11.6768C110.042 11.6768 109.21 12.4987 109.21 13.5126C109.21 14.5266 110.042 15.3485 111.068 15.3485Z" fill="white"/>
<path fill-rule="evenodd" clip-rule="evenodd" d="M101.314 15.1189H97.5978L99.4878 11.9063L101.314 15.1189ZM103.636 11.9063H106.887V15.1189H103.636V11.9063Z" fill="white"/>
</g>
<defs>
<clipPath id="clip0_2_3">
<rect width="120" height="100" fill="white" transform="translate(0 0.980011)"/>
</clipPath>
</defs>
</svg>
